<?xml version="1.0" encoding="utf-8"?>
<!-- Generator: Adobe Illustrator 26.0.3, SVG Export Plug-In . SVG Version: 6.00 Build 0)  -->
<svg version="1.1" id="Layer_1" xmlns="http://www.w3.org/2000/svg" xmlns:xlink="http://www.w3.org/1999/xlink" x="0px" y="0px"
	 viewBox="0 0 500 500" style="enable-background:new 0 0 500 500;" xml:space="preserve">
<path d="M141.8,430.3v33.3c0,15.3-12.4,27.7-27.7,27.7s-27.7-12.4-27.7-27.7v-33.3H53.1V226.1L73,79.3c5.9-23.4,22.1-39.6,48.4-48.4
	C177.4,16.1,220.3,8.7,250,8.7s72.6,7.4,128.5,22.2c30.8,8.9,47,25,48.5,48.4l20,146.8v204.1h-33.3v33.3c0,15.3-12.4,27.7-27.7,27.7
	s-27.7-12.4-27.7-27.7v-33.3H141.8z M169.6,45.3c-6.7,0-12.2,5.5-12.2,12.2s5.5,12.2,12.2,12.2h160.9c6.7,0,12.2-5.5,12.2-12.2
	s-5.5-12.2-12.2-12.2H169.6z M124.1,93c-2.8,0-19.4,0-22.2,22.2L88,226.1c-1.5,11.8,3.7,17.8,15.5,17.8h292.9c0,0,17.8,0,15.5-17.8
	l-13.9-110.9c-1.8-14.8-9.2-22.2-22.2-22.2H124.1z M114.1,312.1c-15.3,0-27.7,12.4-27.7,27.7s12.4,27.7,27.7,27.7
	s27.7-12.4,27.7-27.7S129.4,312.1,114.1,312.1z M385.9,312.1c-15.3,0-27.7,12.4-27.7,27.7s12.4,27.7,27.7,27.7s27.7-12.4,27.7-27.7
	S401.2,312.1,385.9,312.1z"/>
</svg>
